<?xml version="1.0" standalone="no"?>
<!DOCTYPE svg PUBLIC "-//W3C//DTD SVG 20010904//EN"
 "http://www.w3.org/TR/2001/REC-SVG-20010904/DTD/svg10.dtd">
<svg version="1.0" xmlns="http://www.w3.org/2000/svg"
 width="884.000000pt" height="456.000000pt" viewBox="0 0 884.000000 456.000000"
 preserveAspectRatio="xMidYMid meet">

<g transform="translate(0.000000,456.000000) scale(0.100000,-0.100000)"
fill="#000000" stroke="none">
<g id="wheel">
<path class="segment black segment-1" d="M3628 1296 c-15 -19 -29 -38 -30 -44 -2 -5 98 -100 221 -211 l224
-202 33 47 33 47 -47 30 c-116 73 -267 209 -361 325 -19 23 -37 42 -40 42 -3
0 -18 -15 -33 -34z">
    <animate attributeType="CSS" attributeName="fill"
             from="black" to="yellow" dur="5s" repeatCount="indefinite" />
</path>

<path class="segment red segment-2" d="M3375 1027 c-44 -38 -122 -97 -172 -130 -51 -33 -93 -64 -93 -67 0
-12 259 -540 265 -540 15 0 100 49 185 108 114 78 179 131 277 222 l73 68
-176 159 c-97 87 -200 179 -228 204 l-51 46 -80 -70z"/>

<path class="segment black segment-3" d="M2860 724 c-124 -46 -344 -94 -434 -94 l-36 0 0 -310 c0 -272 2 -310
15 -310 37 0 217 22 297 35 172 31 489 133 487 158 0 7 -59 132 -132 279
l-132 267 -65 -25z"/>

<path class="segment red segment-4" d="M1757 696 c-3 -6 -55 -134 -115 -284 l-111 -273 26 -10 c42 -16 232
-67 293 -79 54 -11 288 -40 323 -40 16 0 17 21 17 310 l0 310 -37 0 c-55 0
-205 26 -305 53 -58 16 -89 20 -91 13z"/>

<path class="segment green segment-5" d="M1003 803 c-115 -118 -209 -218 -211 -223 -4 -11 138 -123 253 -199
135 -89 291 -169 304 -156 5 6 59 132 119 282 l110 272 -95 53 c-52 29 -135
83 -184 120 l-89 66 -207 -215z"/>

<path class="segment black segment-6" d="M543 1395 c-150 -66 -275 -124 -278 -127 -14 -14 106 -213 211 -354
74 -98 156 -194 165 -194 4 0 102 99 218 219 l211 219 -37 44 c-56 64 -112
142 -168 233 l-50 82 -272 -122z"/>

<path class="segment red segment-7" d="M210 2110 c-85 -4 -161 -8 -169 -9 -33 -3 20 -312 90 -526 38 -114
43 -125 62 -119 21 7 523 230 538 240 5 3 2 21 -6 42 -27 64 -85 321 -85 376
0 7 -222 5 -430 -4z"/>

<path class="segment black segment-8" d="M106 2908 c-43 -143 -86 -420 -86 -554 l0 -54 49 0 c173 0 556 23
563 33 4 7 8 36 8 65 0 68 16 176 41 276 11 43 19 80 17 81 -5 5 -561 205
-569 205 -4 0 -15 -24 -23 -52z"/>

<path class="segment red segment-9" d="M477 3648 c-30 -40 -78 -109 -107 -153 -62 -95 -182 -337 -172 -346
4 -3 129 -50 277 -104 149 -54 276 -100 282 -103 8 -2 24 21 42 60 32 72 116
212 163 271 l31 39 -29 28 c-64 63 -419 380 -425 380 -4 0 -32 -33 -62 -72z"/>

<path class="segment black segment-10" d="M1145 4242 c-113 -62 -282 -189 -419 -314 l-59 -54 228 -206 229
-207 65 58 c69 60 180 142 244 180 20 13 37 26 37 30 0 16 -260 541 -267 541
-5 0 -30 -13 -58 -28z"/>

<path class="segment red segment-11" d="M2015 4535 c-60 -7 -145 -20 -188 -29 -164 -35 -437 -127 -437 -147
0 -5 59 -131 131 -279 l131 -269 82 29 c141 50 329 90 420 90 l36 0 0 310 0
310 -32 -1 c-18 -1 -82 -7 -143 -14z"/>

<path class="segment black segment-12" d="M2390 4240 l0 -310 38 0 c72 0 307 -47 373 -74 11 -5 19 1 28 20 21
47 209 518 213 533 3 17 -148 67 -288 96 -71 15 -301 45 -346 45 -17 0 -18
-21 -18 -310z"/>

<path class="segment red segment-13" d="M3216 4308 c-8 -18 -59 -144 -114 -280 l-100 -246 95 -54 c52 -29
135 -83 184 -120 l89 -67 207 215 c115 118 209 218 211 223 4 11 -108 100
-228 183 -96 66 -296 178 -319 178 -7 0 -18 -15 -25 -32z"/>

<path class="segment black segment-14" d="M3759 3658 c-96 -101 -190 -200 -208 -220 l-32 -37 76 -96 c43 -52
81 -95 86 -95 4 0 32 28 61 63 59 70 217 215 257 236 14 8 28 17 31 21 3 3 26
21 53 39 l47 32 -42 59 c-22 32 -66 86 -97 120 l-56 61 -176 -183z"/>
</g>

<path class="center-circle" d="M2145 3784 c-214 -31 -342 -67 -503 -144 -434 -207 -730 -588 -834
-1073 -31 -147 -31 -437 0 -584 67 -311 206 -568 427 -788 114 -114 238 -201
390 -276 234 -114 406 -154 670 -154 255 0 430 39 653 145 199 95 361 219 497
381 176 210 279 420 336 689 33 152 33 438 0 590 -103 482 -401 864 -833 1070
-213 101 -372 139 -613 144 -88 3 -173 2 -190 0z m375 -608 c0 -3 -7 -37 -15
-77 -9 -40 -14 -73 -13 -74 2 -1 51 -25 110 -53 90 -44 121 -65 195 -137 l88
-84 -138 -1 c-124 0 -142 2 -168 20 -38 28 -119 63 -127 56 -7 -8 -101 -453
-102 -483 0 -23 1 -23 155 -23 l155 0 2 173 3 172 173 0 174 0 29 -33 29 -32
0 -140 0 -140 113 0 114 0 -34 -157 c-18 -87 -38 -171 -45 -186 -14 -37 -50
-60 -102 -67 l-41 -5 -3 -177 -2 -178 -170 0 -170 0 -32 29 -33 29 -2 149 -3
148 -228 5 -228 5 -66 33 c-84 41 -158 120 -188 200 -39 104 -37 162 15 407
25 121 48 236 50 255 3 33 70 330 80 358 3 9 56 12 215 12 115 0 210 -2 210
-4z m-571 -293 l-28 -118 -73 -75 c-85 -86 -130 -166 -158 -276 -24 -91 -25
-164 -5 -256 79 -373 500 -576 838 -404 l67 34 0 -108 0 -108 -39 -15 c-95
-39 -166 -51 -291 -51 -100 0 -141 4 -203 22 -270 77 -472 278 -549 548 -29
103 -31 295 -4 393 57 208 203 394 383 489 43 23 81 42 84 42 3 0 -7 -53 -22
-117z"/>


<path class="text letter t" d="M4290 2730 l0 -130 165 0 165 0 0 -420 0 -420 145 0 145 0 0 420 0
420 165 0 165 0 0 130 0 130 -475 0 -475 0 0 -130z"/>
<path class="text letter u" d="M5420 2502 c0 -387 4 -421 56 -523 51 -101 160 -183 289 -220 80 -23
285 -17 359 10 155 56 242 148 281 298 12 46 15 131 15 425 l0 368 -140 0
-139 0 -3 -352 c-3 -345 -4 -354 -26 -395 -75 -142 -307 -136 -385 10 -21 41
-22 52 -25 390 l-3 347 -139 0 -140 0 0 -358z"/>
<path class="text letter n" d="M6680 2310 l0 -550 145 0 145 0 2 333 3 332 230 -332 229 -333 143 0
143 0 0 550 0 550 -145 0 -145 0 -2 -331 -3 -330 -226 328 -225 328 -147 3
-147 3 0 -551z"/>
<path class="text letter e" d="M8000 2310 l0 -550 405 0 405 0 0 130 0 130 -265 0 -265 0 0 80 0 80
245 0 245 0 0 130 0 130 -245 0 -245 0 0 80 0 80 260 0 260 0 0 130 0 130
-400 0 -400 0 0 -550z"/>
</g>

</svg>
